<svg xmlns="http://www.w3.org/2000/svg" width="100" height="100" viewBox="0 0 100 100" fill="none">
    <g clip-path="url(#clip0_8586_75436)">
        <path d="M26.3327 41.4106L32.7343 58.5286H28.8234L27.5309 54.7187H21.1293L19.7898 58.5286H16L22.4756 41.4106H26.3327ZM26.5482 51.9049L24.3874 45.6245H24.3402L22.1121 51.9049H26.5482Z" fill="white" style="fill:white;fill:white;fill-opacity:1;"/>
        <path d="M38.5099 54.8331V58.5219H34.7471V54.8331H38.5099Z" fill="white" style="fill:white;fill:white;fill-opacity:1;"/>
        <path d="M49.9264 41.4106C50.9967 41.4106 51.9054 41.5655 52.6594 41.8751C53.4133 42.1847 54.0191 42.5954 54.4903 43.1069C54.9615 43.6185 55.3048 44.2042 55.5202 44.8571C55.7356 45.5101 55.8433 46.1899 55.8433 46.8967C55.8433 47.5833 55.7356 48.2565 55.5202 48.9229C55.3048 49.5893 54.9615 50.1749 54.4903 50.6865C54.0191 51.1981 53.4065 51.6087 52.6594 51.9184C51.9054 52.228 50.9967 52.3828 49.9264 52.3828H45.9683V58.5219H42.2054V41.4106H49.9264ZM48.8965 49.4614C49.3273 49.4614 49.7446 49.4278 50.1418 49.3672C50.539 49.3066 50.8957 49.1787 51.1986 48.9969C51.5016 48.8152 51.7439 48.5527 51.9324 48.2161C52.1141 47.8795 52.2084 47.442 52.2084 46.8967C52.2084 46.3515 52.1141 45.914 51.9324 45.5774C51.7506 45.2408 51.5016 44.985 51.1986 44.7965C50.8957 44.6148 50.5457 44.4869 50.1418 44.4263C49.7446 44.3657 49.3273 44.3321 48.8965 44.3321H45.975V49.4614H48.8965Z" fill="white" style="fill:white;fill:white;fill-opacity:1;"/>
        <path d="M59.6601 54.8331V58.5219H55.8972V54.8331H59.6601Z" fill="white" style="fill:white;fill:white;fill-opacity:1;"/>
        <path d="M75.1424 45.9745C74.9203 45.6178 74.6376 45.3014 74.301 45.0254C73.9644 44.7561 73.5875 44.5407 73.1634 44.3926C72.7393 44.2378 72.295 44.1638 71.8305 44.1638C70.9824 44.1638 70.2621 44.3253 69.6698 44.6552C69.0774 44.985 68.5995 45.4225 68.2292 45.9745C67.859 46.5265 67.5965 47.1525 67.4282 47.8593C67.2599 48.5661 67.1791 49.2931 67.1791 50.0403C67.1791 50.7606 67.2599 51.4606 67.4282 52.1405C67.5965 52.8204 67.8657 53.4329 68.2292 53.9715C68.5995 54.5167 69.0774 54.9475 69.6698 55.2773C70.2621 55.6072 70.9824 55.7687 71.8305 55.7687C72.9816 55.7687 73.8836 55.4187 74.5299 54.7119C75.1761 54.0118 75.5732 53.0829 75.7146 51.9318H79.3563C79.262 53.0021 79.013 53.9715 78.6158 54.8331C78.2187 55.6947 77.6869 56.4284 77.0339 57.041C76.381 57.6468 75.6136 58.1113 74.7318 58.4344C73.85 58.7508 72.8874 58.9123 71.8305 58.9123C70.5179 58.9123 69.3399 58.6834 68.2965 58.2324C67.2464 57.7747 66.3646 57.1487 65.6444 56.3476C64.9241 55.5466 64.3721 54.6109 63.9884 53.5339C63.6047 52.4569 63.4163 51.2923 63.4163 50.047C63.4163 48.7681 63.6047 47.5833 63.9884 46.4861C64.3721 45.3889 64.9241 44.433 65.6444 43.6185C66.3646 42.804 67.2464 42.1645 68.2965 41.7001C69.3467 41.2289 70.5247 41 71.8373 41C72.7797 41 73.6682 41.1346 74.5097 41.4106C75.3511 41.6799 76.0983 42.077 76.7647 42.5953C77.4244 43.1137 77.9763 43.7599 78.4072 44.5273C78.838 45.2946 79.1072 46.1765 79.2217 47.166H75.58C75.5126 46.7284 75.3713 46.3313 75.1424 45.9745Z" fill="white" style="fill:white;fill:white;fill-opacity:1;"/>
        <path d="M84.6 54.8331V58.5219H80.8372V54.8331H84.6Z" fill="white" style="fill:white;fill:white;fill-opacity:1;"/>
    </g>
    <defs>
        <clipPath id="clip0_8586_75436">
            <rect width="100" height="100" fill="white" style="fill:white;fill:white;fill-opacity:1;"/>
        </clipPath>
    </defs>
</svg>