<svg xmlns="http://www.w3.org/2000/svg" width="100" height="100" viewBox="0 0 100 100" fill="none">
    <g clip-path="url(#clip0_8586_75662)">
        <g clip-path="url(#clip1_8586_75662)">
            <path d="M17.3792 39.9159C19.7902 39.9159 21.6611 40.5535 22.9919 41.8286C24.3227 43.1038 25.0616 44.5524 25.2085 46.1746H22.6938C22.4086 44.9428 21.8383 43.9669 20.9828 43.2469C20.1359 42.5269 18.9434 42.1669 17.4051 42.1669C15.5299 42.1669 14.0133 42.8305 12.8554 44.1577C11.706 45.4763 11.1314 47.5018 11.1314 50.2343C11.1314 52.4723 11.6499 54.2896 12.6869 55.6862C13.7325 57.0741 15.288 57.7681 17.3533 57.7681C19.2544 57.7681 20.7019 57.0351 21.6957 55.5691C22.2228 54.7971 22.616 53.7821 22.8753 52.5243H25.39C25.1653 54.5368 24.4221 56.224 23.1605 57.5859C21.6482 59.2254 19.6087 60.0451 17.0422 60.0451C14.8299 60.0451 12.972 59.3729 11.4684 58.0283C9.48946 56.25 8.5 53.5045 8.5 49.7919C8.5 46.9726 9.24318 44.6609 10.7295 42.8566C12.3369 40.8961 14.5534 39.9159 17.3792 39.9159Z" fill="white" style="fill:white;fill:white;fill-opacity:1;"/>
            <path d="M30.5619 45.6151V54.8665C30.5619 55.5778 30.6743 56.159 30.899 56.6101C31.3138 57.4429 32.0872 57.8592 33.2192 57.8592C34.8439 57.8592 35.9501 57.1306 36.5376 55.6732C36.8574 54.8925 37.0171 53.8212 37.0171 52.4593V45.6151H39.3506V59.5508H37.1469L37.1727 57.4949C36.8704 58.024 36.4944 58.4708 36.0451 58.8351C35.155 59.5638 34.0748 59.9281 32.8044 59.9281C30.8255 59.9281 29.4774 59.2645 28.7602 57.9373C28.3713 57.226 28.1769 56.2761 28.1769 55.0877V45.6151H30.5619Z" fill="white" style="fill:white;fill:white;fill-opacity:1;"/>
            <path d="M43.0706 45.615H45.2872V48.0222C45.4687 47.5538 45.9138 46.9856 46.6223 46.3176C47.3308 45.641 48.1477 45.3027 49.0722 45.3027C49.1155 45.3027 49.189 45.3071 49.2925 45.3157C49.3962 45.3244 49.5735 45.3418 49.824 45.3678V47.84C49.6858 47.814 49.5563 47.7966 49.4352 47.788C49.3227 47.7793 49.1975 47.775 49.0592 47.775C47.8841 47.775 46.9811 48.1567 46.35 48.92C45.7192 49.6747 45.404 50.5465 45.404 51.5354V59.5506H43.0706V45.615Z" fill="white" style="fill:white;fill:white;fill-opacity:1;"/>
            <path d="M52.987 45.6151L56.6943 56.9614L60.57 45.6151H63.1234L57.8866 59.5508H55.3979L50.2778 45.6151H52.987Z" fill="white" style="fill:white;fill:white;fill-opacity:1;"/>
            <path d="M70.901 45.3027C71.886 45.3027 72.8409 45.5369 73.7657 46.0054C74.6902 46.4651 75.3945 47.0637 75.8786 47.801C76.3451 48.5036 76.6561 49.3234 76.8119 50.2602C76.9501 50.9021 77.0191 51.9257 77.0191 53.331H66.8437C66.887 54.7449 67.2197 55.8813 67.8418 56.7401C68.4641 57.5902 69.4276 58.0153 70.7325 58.0153C71.9508 58.0153 72.9231 57.6119 73.6489 56.8052C74.0637 56.3367 74.3575 55.7946 74.5305 55.1787H76.8246C76.7641 55.6905 76.5611 56.263 76.2156 56.8962C75.8786 57.5208 75.4983 58.0326 75.0748 58.4316C74.3662 59.1256 73.4892 59.594 72.4433 59.8369C71.8818 59.9757 71.2465 60.0451 70.5379 60.0451C68.8096 60.0451 67.345 59.4162 66.1437 58.1584C64.9426 56.8919 64.342 55.1223 64.342 52.8496C64.342 50.6115 64.9468 48.7942 66.1567 47.3976C67.3665 46.001 68.9478 45.3027 70.901 45.3027ZM74.6212 51.4703C74.526 50.4554 74.3057 49.6443 73.9599 49.0371C73.3206 47.9094 72.2533 47.3456 70.7582 47.3456C69.6869 47.3456 68.7881 47.7359 68.0623 48.5166C67.3362 49.2887 66.9517 50.2732 66.9085 51.4703H74.6212Z" fill="white" style="fill:white;fill:white;fill-opacity:1;"/>
            <path d="M81.2836 55.1787C81.3529 55.9595 81.5474 56.558 81.8672 56.9744C82.4547 57.7291 83.4743 58.1064 84.9262 58.1064C85.7905 58.1064 86.5508 57.9199 87.2076 57.5469C87.8643 57.1652 88.1926 56.5797 88.1926 55.7903C88.1926 55.1918 87.9291 54.7363 87.4021 54.4241C87.065 54.2332 86.3995 54.012 85.4057 53.7604L83.5523 53.292C82.3682 52.9971 81.4954 52.6675 80.9339 52.3031C79.9313 51.6699 79.43 50.7938 79.43 49.6748C79.43 48.3562 79.9011 47.2892 80.8431 46.4739C81.7937 45.6584 83.0683 45.2507 84.6669 45.2507C86.7583 45.2507 88.2661 45.8666 89.1909 47.0984C89.7697 47.8791 90.0508 48.7206 90.0335 49.6227H87.8299C87.7866 49.0936 87.6008 48.6121 87.2723 48.1784C86.7365 47.5625 85.8077 47.2546 84.4854 47.2546C83.6041 47.2546 82.9343 47.4237 82.4762 47.762C82.027 48.1003 81.8022 48.5471 81.8022 49.1022C81.8022 49.7094 82.1005 50.1952 82.6968 50.5596C83.0423 50.7764 83.5523 50.9672 84.2264 51.1321L85.7687 51.5094C87.4453 51.9171 88.5686 52.3118 89.1389 52.6935C90.0462 53.292 90.5 54.2332 90.5 55.5171C90.5 56.7575 90.029 57.8288 89.0872 58.731C88.1539 59.6331 86.728 60.0842 84.8097 60.0842C82.7443 60.0842 81.2794 59.6158 80.4154 58.6789C79.5598 57.7334 79.1018 56.5667 79.0413 55.1787H81.2836Z" fill="white" style="fill:white;fill:white;fill-opacity:1;"/>
        </g>
    </g>
    <defs>
        <clipPath id="clip0_8586_75662">
            <rect width="100" height="100" fill="white" style="fill:white;fill:white;fill-opacity:1;"/>
        </clipPath>
        <clipPath id="clip1_8586_75662">
            <rect width="82" height="20.1683" fill="white" style="fill:white;fill:white;fill-opacity:1;" transform="translate(8.5 39.9159)"/>
        </clipPath>
    </defs>
</svg>