<svg width="24" height="24" viewBox="0 0 24 24" fill="none" xmlns="http://www.w3.org/2000/svg" data-testid="icon-cart" style="width:24px;height:24px" stroke="none"><path d="M1.75732 3H4.75732L5.49988 7.00003M5.49988 7.00003L7.39385 17H18.4999L19.9999 7.00003H5.49988Z" stroke="currentColor" stroke-width="2" stroke-linecap="round" stroke-linejoin="round"></path><path d="M7.5 22.75C8.32843 22.75 9 22.0784 9 21.25C9 20.4216 8.32843 19.75 7.5 19.75C6.67157 19.75 6 20.4216 6 21.25C6 22.0784 6.67157 22.75 7.5 22.75ZM17.25 22.75C18.0784 22.75 18.75 22.0784 18.75 21.25C18.75 20.4216 18.0784 19.75 17.25 19.75C16.4216 19.75 15.75 20.4216 15.75 21.25C15.75 22.0784 16.4216 22.75 17.25 22.75Z" fill="currentColor" stroke="currentColor" stroke-width="0.5" stroke-linecap="round" stroke-linejoin="round"></path></svg>