<svg xmlns="http://www.w3.org/2000/svg" width="100" height="100" viewBox="0 0 100 100" fill="none">
    <g clip-path="url(#clip0_8586_75646)">
        <path d="M23.3038 45.9017C25.1689 45.0273 25.234 43.4256 25.234 42.3061C25.234 39.9772 23.6133 38.0078 20.4452 38.0078H11.1607L12.4394 40.0262V44.872L13.8076 44.1284C14.0827 43.9777 14.3125 43.7556 14.4729 43.4854C14.6334 43.2151 14.7186 42.9067 14.7198 42.5921V39.9772H19.419C21.9682 39.9772 22.9373 40.8761 22.9373 42.4696C22.9292 44.5534 21.5854 45.2153 19.3864 45.2153H16.0961C15.1026 45.2668 14.1668 45.6991 13.4818 46.4229C12.7967 47.1467 12.4148 48.1068 12.4149 49.105V55.0459H14.7116V48.9089C14.7001 48.4658 14.8541 48.0345 15.1433 47.6995C15.3601 47.4477 15.6463 47.2657 15.9658 47.1765C16.1458 47.1252 16.3327 47.1031 16.5196 47.1111C16.5196 47.1111 20.0624 47.1111 20.2008 47.1275C21.96 47.1928 23.768 47.7567 23.768 49.9794C23.768 51.8752 22.5627 53.0928 20.1683 53.0928H16.4382V55.0622H20.2741C24.0287 55.0622 26.0484 52.7578 26.0484 50.0284C26.0484 47.1111 24.4196 46.3593 23.3038 45.9017Z" fill="white" style="fill:white;fill:white;fill-opacity:1;"/>
        <path d="M71.412 38.0245V40.0593H77.1781L77.1537 55.0626H79.4504V40.0593H85.1921V38.0245H71.412Z" fill="white" style="fill:white;fill:white;fill-opacity:1;"/>
        <path d="M38.7942 49.4159V55.0544H41.0746V49.6447C41.0759 48.7023 41.3411 47.7792 41.8401 46.9807L47.476 38.0245H44.7802L39.3724 47.1932C38.9955 47.8731 38.7965 48.6379 38.7942 49.4159Z" fill="white" style="fill:white;fill:white;fill-opacity:1;"/>
        <path d="M54.7 38.0245L55.9786 40.0593V55.0626H58.2671V38.0245H54.7Z" fill="white" style="fill:white;fill:white;fill-opacity:1;"/>
        <path d="M66.8675 53.0115H60.1322V55.0544H66.8675V53.0115Z" fill="white" style="fill:white;fill:white;fill-opacity:1;"/>
        <path d="M36.4894 40.3289C36.0373 39.615 35.4129 39.0271 34.6739 38.62C33.935 38.2128 33.1055 37.9996 32.2625 38H30.2346L31.6191 40.1655H32.2788C32.7571 40.1649 33.2279 40.2852 33.6477 40.5151C34.0676 40.745 34.423 41.0772 34.6813 41.4812L37.711 46.2616L38.9571 44.186L36.4894 40.3289Z" fill="white" style="fill:white;fill:white;fill-opacity:1;"/>
        <path d="M12.4393 62.6051V58.2904H14.2474C14.6168 58.2944 14.9714 58.4373 15.241 58.6908C15.5504 58.9605 15.697 59.3119 15.697 59.7531C15.7009 59.9499 15.6638 60.1453 15.5881 60.3268C15.5124 60.5084 15.3997 60.672 15.2572 60.8073C15.1257 60.9416 14.9684 61.0477 14.7948 61.1193C14.6212 61.191 14.435 61.2266 14.2474 61.2241H13.3922V62.6133H12.4393V62.6051ZM13.3759 60.3415H14.1822C14.318 60.3405 14.4497 60.2946 14.5568 60.2108C14.679 60.1127 14.7279 59.9656 14.7279 59.7531C14.7358 59.6766 14.7275 59.5993 14.7036 59.5262C14.6798 59.453 14.6409 59.3858 14.5894 59.3287C14.5379 59.2717 14.4751 59.2262 14.4049 59.1951C14.3348 59.164 14.2589 59.1481 14.1822 59.1484H13.3759V60.3415Z" fill="white" style="fill:white;fill:white;fill-opacity:1;"/>
        <path d="M17.8879 62.6051V58.2904H19.6878C19.8794 58.2855 20.07 58.32 20.2478 58.3916C20.4257 58.4633 20.5871 58.5707 20.7221 58.7072C20.8632 58.8344 20.9749 58.991 21.0495 59.166C21.1241 59.341 21.1596 59.5302 21.1537 59.7205C21.1587 59.9774 21.0889 60.2301 20.953 60.4478C20.817 60.6655 20.6207 60.8387 20.3882 60.9463L21.4388 62.6133H20.3637L19.4679 61.1751H18.8326V62.6133H17.8879V62.6051ZM18.8408 60.3252H19.59C19.9647 60.3252 20.209 60.0964 20.209 59.7205C20.2129 59.6475 20.2018 59.5745 20.1765 59.5059C20.1512 59.4373 20.1122 59.3747 20.0618 59.3219C20.0114 59.2691 19.9508 59.2271 19.8837 59.1987C19.8166 59.1703 19.7443 59.156 19.6715 59.1566H18.8408V60.3252Z" fill="white" style="fill:white;fill:white;fill-opacity:1;"/>
        <path d="M23.5319 62.6051V58.2904H26.4719V59.1484H24.4847V59.9574H26.3335V60.8073H24.4847V61.7225H26.5127V62.5806H23.5319V62.6051Z" fill="white" style="fill:white;fill:white;fill-opacity:1;"/>
        <path d="M28.8093 62.6051V58.127L31.0816 60.6031L33.3538 58.127V62.597H32.4417V60.3988L31.0897 61.9187L29.7378 60.3988V62.597H28.8093V62.6051Z" fill="white" style="fill:white;fill:white;fill-opacity:1;"/>
        <path d="M35.8134 62.6051V58.2904H36.7663V62.5969H35.8134V62.6051Z" fill="white" style="fill:white;fill:white;fill-opacity:1;"/>
        <path d="M39.1851 58.2823H40.138V60.742C40.138 61.4447 40.4312 61.7961 41.0257 61.7961C41.6203 61.7961 41.8972 61.4447 41.8972 60.742V58.2741H42.85V60.8482C42.85 61.4284 42.679 61.8697 42.3288 62.1965C41.9695 62.5137 41.5041 62.683 41.0257 62.6705C40.5045 62.6705 40.0566 62.5234 39.7145 62.2129C39.3724 61.9024 39.1933 61.4447 39.1933 60.8646L39.1851 58.2823Z" fill="white" style="fill:white;fill:white;fill-opacity:1;"/>
        <path d="M45.2363 62.6051V58.127L47.5086 60.6031L49.7808 58.127V62.597H48.8687V60.3988L47.5167 61.9187L46.1648 60.3988V62.597H45.2363V62.6051Z" fill="white" style="fill:white;fill:white;fill-opacity:1;"/>
        <path d="M56.2963 62.6051V58.2904H57.9985C58.3171 58.2828 58.6274 58.3934 58.8699 58.6009C58.9853 58.6956 59.0776 58.8155 59.1397 58.9515C59.2018 59.0875 59.2321 59.2359 59.2283 59.3854C59.2283 59.8022 59.0247 60.129 58.6744 60.2434C59.2283 60.3415 59.5296 60.7664 59.5296 61.3058C59.534 61.4761 59.5029 61.6454 59.4384 61.803C59.3739 61.9606 59.2774 62.103 59.155 62.221C59.0329 62.3415 58.8876 62.4355 58.7279 62.4973C58.5682 62.5592 58.3975 62.5875 58.2265 62.5806H56.28V62.6051H56.2963ZM57.2329 59.9983H57.8519C57.9707 59.9983 58.0846 59.9509 58.1686 59.8667C58.2526 59.7824 58.2998 59.6681 58.2998 59.5489C58.2998 59.4297 58.2526 59.3153 58.1686 59.231C58.0846 59.1468 57.9707 59.0994 57.8519 59.0994H57.2248V59.9983H57.2329ZM57.2329 61.7634H58.0555C58.3813 61.7634 58.6093 61.5346 58.6093 61.2404C58.6093 60.9462 58.3813 60.7256 58.0473 60.7256H57.2248V61.7634H57.2329Z" fill="white" style="fill:white;fill:white;fill-opacity:1;"/>
        <path d="M61.3295 62.6051L63.5691 58.0371L65.8088 62.6051H64.7989L64.465 61.9187H62.6651L62.3312 62.6051H61.3295ZM63.0235 61.0933H64.1067L63.5529 59.9656L63.0235 61.0933Z" fill="white" style="fill:white;fill:white;fill-opacity:1;"/>
        <path d="M67.6412 61.2813C68.0322 61.6327 68.5127 61.8043 69.0909 61.8043C69.5633 61.8043 69.8402 61.6327 69.8402 61.3712C69.8416 61.3017 69.8232 61.2332 69.7872 61.1738C69.7511 61.1145 69.6988 61.0667 69.6366 61.0361C69.3907 60.9064 69.1347 60.7971 68.871 60.7093C68.1299 60.4396 67.7145 60.0637 67.7145 59.4181C67.709 59.2448 67.7463 59.0728 67.823 58.9174C67.8998 58.762 68.0136 58.628 68.1543 58.5274C68.4765 58.3032 68.8619 58.1887 69.2538 58.2005C69.6587 58.1919 70.0584 58.2936 70.4103 58.4947V59.4345C70.1171 59.1893 69.7425 59.0749 69.2945 59.0749C68.9036 59.0749 68.6756 59.2057 68.6756 59.41C68.6756 59.5325 68.7326 59.6224 68.9036 59.7205L69.1153 59.8267L69.4004 59.933L69.6692 60.0392C70.0845 60.2026 70.3696 60.3906 70.5406 60.5785C70.7116 60.7665 70.7931 61.0361 70.7931 61.363C70.7931 62.1148 70.2148 62.6541 69.1316 62.6541C68.6085 62.6623 68.0931 62.5266 67.6412 62.2619V61.2649V61.2813Z" fill="white" style="fill:white;fill:white;fill-opacity:1;"/>
        <path d="M73.0083 62.6051V58.2904H73.9612V62.5969H73.0083V62.6051Z" fill="white" style="fill:white;fill:white;fill-opacity:1;"/>
        <path d="M79.8658 58.6582V59.6551C79.6946 59.474 79.4889 59.3293 79.2608 59.2297C79.0328 59.13 78.7871 59.0774 78.5383 59.0749C78.3589 59.0722 78.1807 59.1056 78.0143 59.1729C77.8478 59.2403 77.6965 59.3403 77.5691 59.4672C77.4387 59.592 77.3364 59.7433 77.269 59.911C77.2016 60.0787 77.1706 60.2589 77.1782 60.4396C77.1732 60.62 77.2053 60.7994 77.2726 60.9667C77.3399 61.1341 77.4408 61.2857 77.5691 61.4121C77.8326 61.662 78.184 61.7971 78.5465 61.788C78.796 61.7908 79.0434 61.7406 79.2722 61.6406C79.501 61.5406 79.7061 61.3931 79.874 61.2078V62.2047C79.4947 62.4996 79.0262 62.6553 78.5465 62.646C77.9396 62.6603 77.3515 62.4343 76.9095 62.0168C76.6917 61.8158 76.5193 61.5703 76.4041 61.2968C76.2889 61.0233 76.2335 60.7282 76.2416 60.4314C76.2366 60.1351 76.2934 59.8409 76.4084 59.5679C76.5234 59.2949 76.6941 59.049 76.9095 58.8461C77.3655 58.413 77.9031 58.2169 78.5465 58.2169C79.0247 58.2011 79.4927 58.3577 79.8658 58.6582Z" fill="white" style="fill:white;fill:white;fill-opacity:1;"/>
        <path d="M82.0403 61.2813C82.4312 61.6327 82.9117 61.8043 83.49 61.8043C83.9623 61.8043 84.2392 61.6327 84.2392 61.3712C84.2407 61.3017 84.2223 61.2332 84.1862 61.1738C84.1501 61.1145 84.0979 61.0667 84.0356 61.0361C83.7898 60.9064 83.5337 60.7971 83.2701 60.7093C82.5289 60.4396 82.1136 60.0637 82.1136 59.4181C82.1081 59.2448 82.1454 59.0728 82.2221 58.9174C82.2988 58.762 82.4126 58.628 82.5534 58.5274C82.8756 58.3032 83.2609 58.1887 83.6528 58.2005C84.0578 58.1919 84.4574 58.2936 84.8093 58.4947V59.4345C84.5161 59.1893 84.1415 59.0749 83.6936 59.0749C83.3026 59.0749 83.0746 59.2057 83.0746 59.41C83.0746 59.5325 83.1316 59.6224 83.3026 59.7205L83.5144 59.8267L83.7994 59.933L84.0682 60.0392C84.4836 60.2026 84.7686 60.3906 84.9396 60.5785C85.1107 60.7665 85.1921 61.0361 85.1921 61.363C85.1921 62.1148 84.6139 62.6541 83.5307 62.6541C83.0075 62.6623 82.4921 62.5266 82.0403 62.2619V61.2649V61.2813Z" fill="white" style="fill:white;fill:white;fill-opacity:1;"/>
        <path d="M90.1439 38.0245V38.2697H89.6878V39.4709H89.4027V38.2697H88.9467V38.0245H90.1439ZM91.6994 39.4627L91.6424 38.6129C91.6442 38.4792 91.6387 38.3455 91.6261 38.2124C91.5854 38.335 91.5447 38.5066 91.504 38.6456L91.2515 39.4382H90.9583L90.7058 38.6129C90.6814 38.5066 90.6407 38.3269 90.6081 38.2124H90.5918C90.5945 38.3461 90.5891 38.4799 90.5755 38.6129L90.5185 39.4627H90.2497L90.3638 38.0245H90.7954L91.0397 38.7273C91.0642 38.8335 91.0967 38.9397 91.1375 39.0868C91.1782 38.9561 91.2026 38.8335 91.2352 38.7273L91.4795 38.0163H91.8949L92.0008 39.4546H91.7157V39.4627H91.6994Z" fill="white" style="fill:white;fill:white;fill-opacity:1;"/>
    </g>
    <defs>
        <clipPath id="clip0_8586_75646">
            <rect width="100" height="100" fill="white" style="fill:white;fill:white;fill-opacity:1;"/>
        </clipPath>
    </defs>
</svg>