<svg xmlns="http://www.w3.org/2000/svg" width="100" height="100" viewBox="0 0 100 100" fill="none">
    <g clip-path="url(#clip0_8586_75670)">
        <path d="M18.7389 48.8144L25.1104 43.0343H30.2036L23.8704 48.7189L30.6807 56.7309H25.9308L21.1806 51.1219L18.7389 53.3155V56.7302H15V43.0343H18.7389V48.8144ZM60.6665 46.2009V56.7309H56.928V46.2009H51.1667V43.0343H66.4274V46.2009H60.6665ZM86 56.7309H82.6985L74.7465 47.8417V56.7309H71.1017V43.0343H74.8406L82.3566 51.4659V43.0343H86V56.7309ZM40.3431 42.7982C36.1225 42.7982 32.701 45.9701 32.701 49.8826C32.701 53.7951 36.1225 56.967 40.3431 56.967C44.5637 56.967 47.9855 53.7951 47.9855 49.8826C47.9855 45.9701 44.564 42.7982 40.3431 42.7982ZM40.3431 53.6967C38.146 53.6967 36.3639 51.9899 36.3639 49.8826C36.3639 47.7753 38.146 46.0674 40.3431 46.0674C42.5402 46.0674 44.323 47.7753 44.323 49.8826C44.323 51.9899 42.5409 53.6967 40.3431 53.6967Z" fill="white" style="fill:white;fill:white;fill-opacity:1;"/>
    </g>
    <defs>
        <clipPath id="clip0_8586_75670">
            <rect width="100" height="100" fill="white" style="fill:white;fill:white;fill-opacity:1;"/>
        </clipPath>
    </defs>
</svg>