<svg xmlns="http://www.w3.org/2000/svg" width="100" height="100" viewBox="0 0 100 100" fill="none">
<g clip-path="url(#clip0_8586_75369)">
<path d="M54.8752 44.6797C54.9176 44.6797 54.9706 44.6798 55.0129 44.6691C55.7117 44.595 56.3363 44.0233 56.4422 43.314C56.5481 42.6152 56.1034 42.0329 55.4258 41.9588C55.3834 41.9588 55.3305 41.9482 55.2882 41.9482C55.2458 41.9482 55.1929 41.9482 55.1505 41.9588C54.4518 42.0329 53.8271 42.6046 53.7212 43.314C53.6683 43.6845 53.7636 44.0127 53.9647 44.2668C54.1765 44.5209 54.4941 44.6797 54.8752 44.6797Z" fill="white" style="fill:white;fill:white;fill-opacity:1;"/>
<path d="M86.7433 56.0506C86.7433 54.1872 85.8328 52.4827 85.0282 50.9792C84.34 49.6982 83.7259 48.5336 83.8848 47.6654C84.0012 47.0407 84.4459 46.6808 85.1341 46.6384C85.1552 46.6384 85.1764 46.6279 85.1976 46.6279C85.2294 46.6173 85.2611 46.5961 85.2929 46.5749C85.3246 46.5538 85.3458 46.522 85.3564 46.4902C85.3564 46.4796 85.367 46.4796 85.367 46.469L85.7058 45.5903C85.7376 45.495 85.7482 45.4315 85.7164 45.368C85.6952 45.3256 85.6635 45.2833 85.6105 45.2409C85.547 45.188 85.4411 45.1456 85.3035 45.1033C85.1129 45.0398 84.8694 44.9974 84.6471 44.9974C83.6519 44.9974 82.4343 45.3256 81.3756 47.9619C81.3332 48.0678 79.2898 53.3614 79.2263 53.5308C78.9722 54.1555 78.4323 54.9072 77.2888 54.9072C76.7912 54.9072 76.3889 54.7166 76.1666 54.399C76.1242 54.3355 76.0925 54.2719 76.0607 54.2084C75.976 53.9967 75.9442 53.7426 75.9972 53.4673C76.0184 53.372 76.0395 53.2662 76.0713 53.1603C76.1242 52.9803 76.1983 52.7791 76.283 52.578C77.0665 50.577 79.851 43.4516 80.7086 41.2601C80.8144 40.9848 80.6662 40.7625 80.3698 40.7625H79.3851C79.2793 40.7625 79.1628 40.7942 79.0675 40.8472C78.8875 40.9319 78.7393 41.0907 78.6652 41.2601C78.284 42.2235 77.7441 43.621 77.1724 45.0927C76.7277 46.2255 76.2725 47.4007 75.849 48.4701C75.7219 48.2583 75.5737 48.0572 75.4149 47.8666C75.2455 47.676 75.0655 47.496 74.8749 47.3372C74.0491 46.6596 73.0009 46.2891 71.8469 46.2891C70.4282 46.2891 69.0624 46.8608 67.9931 47.7925C67.9508 47.8243 67.919 47.8666 67.8766 47.8984C67.8449 47.9195 67.8237 47.9513 67.7919 47.9725C67.0932 48.6289 66.5426 49.4441 66.2038 50.344C66.2038 50.3546 66.1932 50.3652 66.1932 50.3864C66.1509 50.5028 66.1191 50.6193 66.0768 50.7464C66.0133 50.9687 65.9603 51.191 65.9286 51.4239C65.8968 51.6357 65.8756 51.8474 65.865 52.0592C65.8439 52.6733 65.9391 53.2768 66.1297 53.8273C66.0344 53.9861 65.9074 54.1343 65.7697 54.2719C65.378 54.6425 64.8592 54.886 64.3193 54.9284C64.2663 54.9284 64.224 54.9284 64.171 54.9284C63.9593 54.9284 63.7581 54.886 63.5781 54.8225C63.3558 54.7378 63.1652 54.6002 63.0382 54.4202C62.7947 54.0708 62.7947 53.5626 63.017 52.9803C63.07 52.8321 63.4088 51.9321 63.7158 51.1275C63.9487 50.5029 64.1605 49.9205 64.2028 49.8041C64.224 49.7406 64.2663 49.6453 64.2981 49.5288C64.351 49.3065 64.3828 48.9994 64.2346 48.6818C64.171 48.5548 64.0969 48.4489 64.0122 48.3536C63.8428 48.1736 63.6205 48.0677 63.4088 47.983C63.3241 47.9513 63.2394 47.9195 63.1547 47.8984C63.0064 47.856 62.8476 47.7925 62.6676 47.7184C62.657 47.7184 62.6571 47.7078 62.6465 47.7078C62.35 47.5807 60.9207 46.9137 60.9207 45.6432C60.9207 45.6114 60.9207 45.5797 60.9207 45.5585C60.9207 45.5479 60.9207 45.5373 60.9207 45.5267C60.9207 45.5161 60.9207 45.495 60.9207 45.4844C60.8996 45.2938 60.836 45.1774 60.7513 45.1138C60.7407 45.1138 60.7407 45.1033 60.7302 45.1033C60.7302 45.1033 60.7302 45.1033 60.7196 45.1033C60.709 45.0927 60.6984 45.0927 60.6878 45.0821C60.6878 45.0821 60.6878 45.0821 60.6772 45.0821C60.6772 45.0821 60.6772 45.0821 60.6666 45.0821C60.656 45.0821 60.656 45.0715 60.6454 45.0715C60.5925 45.0503 60.5395 45.0397 60.476 45.0397H59.502C59.3008 45.0397 59.0785 45.1456 58.9303 45.3044C58.8667 45.3679 58.8138 45.4526 58.782 45.5373C58.5703 46.0773 58.3162 46.7231 58.0515 47.4113C57.1198 49.8041 56.0081 52.6732 55.6905 53.4885C55.6799 53.5202 55.6694 53.552 55.6588 53.5837C55.4047 54.2084 54.8647 54.9601 53.7107 54.9601C53.2131 54.9601 52.8002 54.7695 52.5884 54.4519C52.4614 54.2613 52.3978 54.0178 52.4084 53.732C52.419 53.5096 52.4719 53.2661 52.5672 53.012C52.7684 52.4827 53.2025 51.3816 53.6577 50.217C54.0918 49.1053 54.5471 47.9195 54.8647 47.1149C54.9706 46.8396 54.8223 46.6172 54.5259 46.6172H53.5413H53.446C53.3825 46.6172 53.3084 46.6278 53.2342 46.649C53.2236 46.649 53.2236 46.649 53.2131 46.649C52.9801 46.7125 52.7472 46.8714 52.6096 47.0407C52.1014 47.6548 51.445 48.1524 50.725 48.5124C50.0051 48.8724 49.2322 49.1053 48.4911 49.19C48.3852 48.9147 48.2476 48.6394 48.0782 48.3853C48.0676 48.3747 48.0676 48.3642 48.057 48.3536C47.9511 48.1948 47.8453 48.0465 47.7182 47.8983C46.8395 46.8819 45.5796 46.3208 44.1503 46.3208C43.388 46.3208 42.6468 46.4902 41.9481 46.7866C42.2975 45.8867 42.6469 44.9762 42.9751 44.1186C43.3774 43.0705 43.7585 42.0964 44.0656 41.2918C44.1185 41.1647 44.1079 41.0589 44.0656 40.9636C44.0126 40.8577 43.8962 40.7942 43.7374 40.7942H43.7267H42.7527H42.7421C42.6257 40.7942 42.4986 40.8365 42.3821 40.9001C42.2445 40.9742 42.128 41.08 42.0645 41.2071C42.0539 41.2389 42.0327 41.26 42.0222 41.2918C40.7623 44.4998 38.7507 49.6982 37.7978 52.1862C37.5331 52.8638 37.3531 53.3508 37.279 53.5308C37.0249 54.1555 36.485 54.9072 35.3415 54.9072C35.2356 54.9072 35.1404 54.8966 35.0557 54.886C34.6957 54.8225 34.3887 54.6637 34.2193 54.399C34.1875 54.346 34.1557 54.2931 34.124 54.2296C34.0287 54.0178 33.9969 53.7532 34.0499 53.4673C34.071 53.3297 34.1451 53.1073 34.2298 52.885C34.3463 52.5674 34.4628 52.2603 34.4628 52.2603C34.4628 52.2603 34.8863 51.1804 35.4897 49.6135C35.5533 49.4441 35.6274 49.2641 35.7015 49.0735C35.7121 49.0524 35.7227 49.0312 35.7227 49.01C36.6544 46.6172 37.9037 43.3881 38.8036 41.0589C39.1636 40.1166 39.4706 39.3225 39.6823 38.7932C39.7882 38.5179 39.64 38.2956 39.3435 38.2956H38.3589C38.0625 38.2956 37.7448 38.5179 37.639 38.7932C37.5225 39.0896 36.4849 41.7788 35.3203 44.7856C33.8169 48.6606 32.1124 53.065 31.9324 53.5414C31.89 53.6367 31.8477 53.732 31.7947 53.8273C31.6359 54.1343 31.3924 54.4308 31.0536 54.6425C30.7784 54.8119 30.4184 54.9178 29.9843 54.9284C29.582 54.9284 29.2432 54.8119 29.0103 54.5896C28.9573 54.5366 28.9044 54.4837 28.8514 54.4202C28.6926 54.1766 28.6291 53.8696 28.6926 53.5096V53.499C28.7456 53.192 29.1585 52.1121 29.1585 52.0909C29.4232 51.4133 29.7302 50.6087 30.0584 49.7511C31.1489 46.9454 32.4829 43.4728 33.3405 41.2812C33.3617 41.2177 33.3723 41.1541 33.3723 41.0906C33.3617 41.0059 33.3299 40.9212 33.2664 40.8683C33.2029 40.8153 33.1182 40.7836 33.0017 40.7836H32.0171C31.9112 40.7836 31.7947 40.8154 31.6889 40.8683C31.5406 40.9424 31.4136 41.0589 31.3395 41.1965C31.3289 41.2177 31.3077 41.2494 31.2971 41.2706C31.043 41.9164 30.7678 42.6364 30.4713 43.3987C30.1537 44.2245 29.8149 45.1032 29.4655 45.982C28.1103 49.4758 26.7657 52.9803 26.5434 53.5414C26.4693 53.7214 26.374 53.9014 26.2575 54.0813C25.9399 54.5366 25.4317 54.9178 24.5953 54.9178C24.2883 54.9178 24.013 54.8436 23.7907 54.7166C23.6636 54.6319 23.5472 54.5366 23.4731 54.4096C23.4201 54.3249 23.3778 54.2402 23.346 54.1449C23.2825 53.9543 23.2719 53.732 23.3142 53.4884C23.3672 53.192 23.6636 52.4191 23.7166 52.3027C23.7166 52.2921 23.7272 52.2815 23.7272 52.2815L25.7494 47.0725C25.8552 46.7972 25.707 46.5749 25.4106 46.5749H24.4259C24.2459 46.5749 24.0554 46.6596 23.9071 46.7866C23.8965 46.7866 23.8965 46.7972 23.8965 46.7972C23.8118 46.8713 23.7483 46.9666 23.7166 47.0619L23.5154 47.5913L23.1978 48.4171C23.1343 48.3218 23.0707 48.2265 23.0072 48.1313C22.9437 48.036 22.8696 47.9513 22.7955 47.8666C22.4778 47.496 22.0967 47.1784 21.6838 46.9349C20.9744 46.5114 20.138 46.289 19.2381 46.289C17.0253 46.289 14.929 47.6866 13.902 49.6558C13.6162 50.2064 13.415 50.7993 13.3197 51.4133C13.0974 52.8532 13.468 54.219 14.3573 55.246C14.6326 55.5636 14.9396 55.8389 15.289 56.0612C15.3525 56.1036 15.4266 56.1459 15.5007 56.1883C16.2101 56.6012 17.0359 56.8235 17.9253 56.8235C19.3546 56.8235 20.7415 56.2306 21.8214 55.2883C21.8532 55.3519 21.8955 55.4154 21.9379 55.4789C21.959 55.5107 21.9908 55.553 22.012 55.5848C22.012 55.5954 22.0226 55.5954 22.0226 55.6059C22.0438 55.6377 22.0755 55.6695 22.0967 55.7012C22.1179 55.7224 22.1391 55.7436 22.1496 55.7648C22.1602 55.7859 22.1814 55.7965 22.2026 55.8177C22.2343 55.8495 22.2661 55.8812 22.2873 55.913C22.2979 55.9236 22.3084 55.9342 22.3191 55.9448C22.3614 55.9765 22.3932 56.0189 22.4355 56.0506C22.4355 56.0506 22.4355 56.0506 22.4461 56.0612C22.8061 56.3683 23.2613 56.6118 23.7907 56.7388C23.8013 56.7388 23.8119 56.7494 23.8225 56.7494C23.8754 56.76 23.9284 56.7706 23.9813 56.7812C24.0025 56.7812 24.0236 56.7918 24.0554 56.7918C24.0978 56.8024 24.1401 56.8024 24.193 56.813C24.2354 56.813 24.2672 56.8236 24.3095 56.8236C24.3413 56.8236 24.373 56.8342 24.4154 56.8342C24.4895 56.8342 24.5636 56.8448 24.6483 56.8448C25.1988 56.8448 25.7176 56.7389 26.1941 56.5377C26.374 56.4636 26.5434 56.3789 26.7022 56.2731C26.7552 56.2413 26.8081 56.2095 26.8611 56.1672C27.0728 56.019 27.274 55.8602 27.454 55.6696C27.5175 55.7543 27.5916 55.8284 27.6657 55.9025C28.1527 56.4001 28.8091 56.7072 29.5609 56.8024C29.582 56.8024 29.6138 56.813 29.635 56.813C29.6561 56.813 29.6773 56.813 29.6985 56.813C29.7408 56.813 29.7832 56.8236 29.8255 56.8236C29.8467 56.8236 29.8679 56.8236 29.8785 56.8236C29.9208 56.8236 29.9738 56.8236 30.0161 56.8236C31.1172 56.8236 32.0912 56.4107 32.8112 55.6696C33.0865 56.0084 33.4358 56.2837 33.8382 56.4848C34.2934 56.7072 34.8122 56.8236 35.3627 56.8236C35.6486 56.8236 35.9239 56.7919 36.1886 56.7389C37.3426 56.506 38.2954 55.7755 38.8778 54.6744C38.9095 54.7273 38.9413 54.7697 38.973 54.8226C39.0154 54.8861 39.0577 54.9497 39.1001 55.0132C39.1636 55.0979 39.2271 55.172 39.2907 55.2567C40.1694 56.2731 41.4293 56.8342 42.8586 56.8342C44.8067 56.8342 46.6701 55.7437 47.7817 54.1556C48.2899 53.4251 48.6393 52.5993 48.777 51.7205C48.8087 51.4982 48.8299 51.2758 48.8405 51.0535C49.0311 51.0323 49.2216 51.0006 49.4016 50.9582C50.2168 50.7994 50.9791 50.5347 51.6567 50.1748C51.6356 50.2277 51.6144 50.2912 51.5932 50.3442C51.2756 51.1806 50.9897 51.9005 50.8415 52.2922C50.3757 53.4674 50.4498 54.6109 51.0533 55.5002C51.2756 55.8284 51.5615 56.1037 51.8897 56.3154C52.419 56.6542 53.0543 56.8448 53.753 56.8448C55.4364 56.8448 56.8234 55.8814 57.4798 54.2509C57.5645 54.0391 57.7339 53.5945 57.9562 53.0122C58.4221 51.8158 59.1208 50.0159 59.7561 48.3855C59.809 48.2373 59.8725 48.089 59.9255 47.9514C60.476 48.6396 61.2171 49.1584 61.9371 49.4654C61.9794 49.4866 62.0112 49.4972 62.0535 49.5183C62.1382 49.5501 62.2229 49.5819 62.2971 49.6136C61.9371 50.5877 61.3654 52.1334 61.2913 52.3028C61.0054 53.0334 60.9207 53.7427 61.0478 54.3885C61.1219 54.7908 61.2807 55.172 61.503 55.5108C61.6512 55.7225 61.8206 55.9131 62.0112 56.0825C62.5406 56.5378 63.2288 56.813 63.991 56.8554C64.0652 56.8554 64.1287 56.866 64.2028 56.866C64.3193 56.866 64.4357 56.8554 64.5522 56.8448C64.5733 56.8448 64.6051 56.8448 64.6263 56.8342C64.6369 56.8342 64.6474 56.8342 64.6581 56.8342C65.1451 56.7812 65.6109 56.633 66.045 56.4213C66.4897 56.199 66.892 55.9025 67.2308 55.5531C67.8978 56.2095 68.7554 56.633 69.7188 56.7918C69.9835 56.8342 70.2588 56.8554 70.5447 56.8554C70.9046 56.8554 71.2646 56.813 71.614 56.7495C72.5774 56.5589 73.4879 56.1037 74.2502 55.479C74.3243 55.4261 74.3879 55.3626 74.4514 55.299C74.4937 55.3731 74.5361 55.4473 74.5785 55.5108C74.949 56.0507 75.4784 56.4424 76.103 56.6648C76.1348 56.6754 76.1666 56.686 76.1877 56.6966C76.2195 56.7072 76.2618 56.7177 76.2936 56.7283C76.3359 56.7389 76.3677 56.7495 76.4101 56.7601C76.4418 56.7707 76.4736 56.7707 76.5053 56.7813C76.5477 56.7919 76.5795 56.8024 76.6218 56.8024C76.6536 56.813 76.6853 56.813 76.7171 56.8236C76.7594 56.8342 76.7912 56.8342 76.8336 56.8342C76.8759 56.8342 76.9183 56.8448 76.9606 56.8448C76.9924 56.8448 77.0241 56.8554 77.0559 56.8554C77.13 56.8554 77.2041 56.866 77.2888 56.866C78.9722 56.866 80.3592 55.9025 81.0156 54.2721C81.0474 54.1768 81.6614 52.6416 82.159 51.3711C82.3072 50.99 82.4449 50.63 82.5507 50.3442C82.6037 50.4606 82.6672 50.5877 82.7201 50.7041C82.9213 51.1065 83.1331 51.5194 83.3554 51.9429C83.5354 52.2817 83.726 52.631 83.8953 52.9804C84.4141 54.018 84.8482 55.0767 84.8482 56.1143C84.8482 59.174 82.7731 59.714 82.1378 59.8093C81.7143 59.8728 81.3967 60.201 81.3332 60.6033C81.3226 60.6986 81.312 60.7939 81.3332 60.8892C81.3332 60.921 81.3438 60.9527 81.3544 60.9739C81.4602 61.3974 81.8414 61.7044 82.2755 61.7044C82.2966 61.7044 82.3178 61.7044 82.3496 61.7044C82.3708 61.7044 82.3919 61.7044 82.4237 61.7044C82.9213 61.6303 83.4507 61.4715 83.9483 61.228C85.4199 60.4022 86.7433 58.7927 86.7433 56.0506ZM74.5467 51.4027C74.3667 52.6521 73.5726 53.7531 72.5351 54.3778C72.5245 54.3884 72.5033 54.399 72.4927 54.399C72.4927 54.399 72.4821 54.399 72.4821 54.4096C71.9316 54.7272 71.3175 54.9072 70.6823 54.9072C70.3858 54.9072 70.1 54.8648 69.8353 54.7801C69.3694 54.6319 68.9565 54.3672 68.6495 53.9967C68.3424 53.6261 68.1519 53.1708 68.0778 52.6627V52.6521C68.0354 52.345 68.0354 52.0274 68.0884 51.6992C68.1625 51.2122 68.3213 50.7463 68.5648 50.3228C68.8824 49.7511 69.3271 49.2641 69.8459 48.8935C70.4705 48.4595 71.2011 48.1948 71.9528 48.1948C72.461 48.1948 72.9268 48.3112 73.3185 48.5441C73.5726 48.6924 73.795 48.8829 73.9855 49.1053C74.0808 49.2217 74.1655 49.3382 74.229 49.4653C74.4726 49.8887 74.589 50.3863 74.589 50.9157C74.589 51.0745 74.5784 51.2334 74.5467 51.4027ZM41.9904 54.8119C41.4717 54.6742 41.027 54.399 40.6988 53.9861C40.2012 53.3826 40 52.5674 40.1271 51.6886V51.678C40.1588 51.4557 40.2118 51.2651 40.2647 51.1063C40.3388 50.9157 40.4129 50.7146 40.4976 50.5134C40.5082 50.4816 40.5294 50.4605 40.54 50.4287C40.5717 50.3758 40.5929 50.3228 40.6247 50.2699C40.6353 50.2487 40.6458 50.2381 40.6564 50.2169C40.8894 49.8252 41.1752 49.4758 41.5034 49.1794C42.2022 48.5653 43.081 48.1842 43.9915 48.1842C44.4044 48.1842 44.7961 48.2689 45.1349 48.4171C45.4843 48.5759 45.7807 48.7982 46.0243 49.0947C46.5219 49.6982 46.723 50.5134 46.596 51.4027C46.3101 53.3296 44.5738 54.9072 42.721 54.9072C42.4669 54.9072 42.2234 54.8754 41.9904 54.8119ZM18.0312 54.9072C17.1948 54.9072 16.4748 54.579 15.9878 53.9966C15.9349 53.9331 15.8925 53.8696 15.8502 53.8061C15.4479 53.2238 15.2996 52.4827 15.4161 51.6886C15.702 49.7617 17.4489 48.1842 19.3123 48.1842C20.1487 48.1842 20.8686 48.5124 21.3556 49.0947C21.8532 49.6982 22.065 50.5134 21.9273 51.4027C21.9062 51.551 21.8744 51.6992 21.8321 51.8474C21.3662 53.5626 19.7463 54.9072 18.0312 54.9072Z" fill="white" style="fill:white;fill:white;fill-opacity:1;"/>
</g>
<defs>
<clipPath id="clip0_8586_75369">
<rect width="100" height="100" fill="white" style="fill:white;fill:white;fill-opacity:1;"/>
</clipPath>
</defs>
</svg>
