<svg xmlns="http://www.w3.org/2000/svg" width="100" height="100" viewBox="0 0 100 100" fill="none">
    <g clip-path="url(#clip0_8586_75654)">
        <path d="M20.7726 50.9437C20.1215 53.5899 18.358 54.892 15.4407 54.892C13.786 54.892 12.4826 54.4759 11.5329 53.6318C10.5293 52.7587 10 51.4984 10 50.0302C10 46.9824 12.1711 45.0024 15.4946 45.0024C17.0817 45.0024 18.3297 45.4315 19.3065 46.332C20.0254 46.9824 20.433 47.6484 20.6356 48.5489H18.195C17.7337 47.3854 16.8378 46.8032 15.4958 46.8032C13.6782 46.8032 12.403 48.1196 12.403 49.9896C12.403 51.8179 13.6514 53.0924 15.4419 53.0924C16.8941 53.0924 17.7489 52.442 18.2771 50.945H20.7726V50.9437ZM23.6929 51.6224C23.7072 52.6938 24.4678 53.3618 25.6441 53.3618C26.4883 53.3618 27.0137 53.0698 27.2765 52.4427H29.6968C29.476 53.0686 29.1846 53.4723 28.6319 53.9323C27.8434 54.5858 26.9157 54.892 25.7121 54.892C24.2732 54.892 23.1389 54.5028 22.4332 53.7785C21.811 53.1384 21.479 52.2483 21.479 51.232C21.479 48.9354 23.084 47.4748 25.6297 47.4748C27.3457 47.4748 28.6319 48.115 29.2539 49.2982C29.6132 49.9661 29.7519 50.6206 29.7792 51.6224H23.6929ZM27.4425 50.2591C27.2215 49.3125 26.6124 48.8392 25.6023 48.8392C24.5921 48.8392 23.97 49.3125 23.7621 50.2591H27.4425ZM32.8072 47.651V48.7085C33.4047 47.8716 34.124 47.4748 35.0741 47.4748C35.1959 47.4748 35.2908 47.49 35.5085 47.5039L35.6071 49.8421C35.3083 49.7533 35.1454 49.7393 34.9148 49.7393C33.68 49.7393 32.8085 50.1766 32.8085 51.4991V54.892H30.6623V47.6496H32.8072V47.651ZM37.8209 51.6224C37.8352 52.6938 38.5959 53.3618 39.7722 53.3618C40.6163 53.3618 41.1417 53.0698 41.4045 52.4427H43.8248C43.6041 53.0686 43.3127 53.4723 42.7599 53.9323C41.9716 54.5858 41.0439 54.892 39.8402 54.892C38.4012 54.892 37.2669 54.5028 36.5612 53.7785C35.9391 53.1384 35.6071 52.2483 35.6071 51.232C35.6071 48.9354 37.212 47.4748 39.7577 47.4748C41.4737 47.4748 42.7599 48.115 43.3819 49.2982C43.7413 49.9661 43.8799 50.6206 43.9073 51.6224H37.8209ZM41.5705 50.2591C41.3496 49.3125 40.7405 48.8392 39.7303 48.8392C38.7202 48.8392 38.098 49.3125 37.8902 50.2591H41.5705ZM46.8268 47.722V48.5944C47.6546 47.7948 48.4108 47.4748 49.4066 47.4748C50.584 47.4748 51.3971 47.9543 52.0275 49.0011C52.883 47.9392 53.7798 47.4748 54.9438 47.4748C56.0097 47.4748 56.9065 47.9255 57.3687 48.6824C57.7328 49.2634 57.8587 49.9327 57.8587 51.1979V54.892H55.6443V51.5468C55.6443 50.8777 55.5463 50.412 55.3226 50.0053C55.0418 49.5108 54.5238 49.1906 53.9903 49.1906C53.4578 49.1906 52.9388 49.5108 52.658 50.0053C52.4341 50.412 52.3361 50.8777 52.3361 51.5468V54.892H50.1219V51.5468C50.1219 50.8777 50.0238 50.412 49.8001 50.0053C49.5193 49.5108 49.0147 49.1906 48.4823 49.1906C47.9498 49.1906 47.4308 49.5108 47.15 50.0053C46.9263 50.412 46.8283 50.8777 46.8283 51.5468V54.892H44.6137V47.722H46.8268ZM66.6017 48.5607C67.3669 49.2284 67.7483 50.1054 67.7483 51.2464C67.7483 53.4038 65.9075 54.892 63.245 54.892C60.5399 54.892 58.7417 53.417 58.7417 51.1769C58.7417 48.9499 60.5399 47.4748 63.2733 47.4748C64.6043 47.4748 65.7803 47.8651 66.6017 48.5607ZM61.1488 51.1769C61.1488 52.4007 62.0131 53.2643 63.2452 53.2643C64.4493 53.2643 65.3415 52.4019 65.3415 51.2189C65.3415 49.9661 64.492 49.1036 63.2599 49.1036C62.0131 49.1036 61.1488 49.9528 61.1488 51.1769ZM68.4547 47.722H70.7555V48.5944C71.7462 47.7798 72.503 47.4748 73.5516 47.4748C74.5423 47.4748 75.46 47.8237 76.027 48.435C76.5801 49.0161 76.755 49.6275 76.755 50.9367V54.892H74.4542V51.0961C74.4542 50.3694 74.3083 49.9475 73.9451 49.6275C73.6245 49.3513 73.1732 49.1906 72.6778 49.1906C71.4834 49.1906 70.7555 49.9325 70.7555 51.1539V54.8908H68.4547V47.722ZM77.638 45.8854H80.1104V47.6673H77.638V45.8854ZM77.638 48.2349H80.1104V54.892H77.638V48.2349ZM90 52.9185C89.5931 53.0073 89.3268 52.9605 89.1576 52.88C88.9874 52.7984 88.8835 52.6146 88.8835 52.4176V50.0765C88.8835 49.2837 88.6847 48.6566 88.3143 48.3096C87.7577 47.781 86.6857 47.4748 85.3612 47.4748C83.9841 47.4748 82.8196 47.8086 82.2105 48.3793C81.8266 48.7408 81.6413 49.1864 81.5225 49.9661H83.6413C83.7076 49.1588 84.1579 48.8394 85.2173 48.8394C86.2103 48.8394 86.7933 49.1588 86.7933 49.7017C86.7933 50.1605 86.5019 50.2723 84.6082 50.4392C82.8344 50.6063 82.4367 50.6891 81.9603 50.9545C81.3374 51.3162 80.9934 51.9145 80.9934 52.6244C80.9934 53.2226 81.2185 53.7512 81.6551 54.169C82.1579 54.6423 82.9522 54.8922 83.9716 54.8922C85.2687 54.8922 86.063 54.5859 86.8309 53.7932L86.9566 53.9097C87.0139 53.9961 87.0755 54.0802 87.1417 54.1559C87.3033 54.3427 87.4977 54.4982 87.7155 54.6147C87.7794 54.6483 87.8458 54.6783 87.9133 54.7048C88.207 54.8189 88.5395 54.8754 88.9086 54.8754C89.168 54.8754 89.4366 54.8466 89.7132 54.7876C89.8099 54.7673 89.9053 54.7412 89.9989 54.7096V52.9185H90ZM86.8309 51.7882C86.8309 52.2338 86.6195 52.623 86.1955 52.9293C85.6789 53.3054 85.0435 53.5274 84.4608 53.5274C83.7727 53.5274 83.2424 53.1094 83.2424 52.5808C83.2424 52.3023 83.4013 52.038 83.6401 51.9274C83.8916 51.8158 84.143 51.775 85.0435 51.6908C85.9966 51.5936 86.2218 51.5384 86.8309 51.315V51.7882Z" fill="white" style="fill:white;fill:white;fill-opacity:1;"/>
    </g>
    <defs>
        <clipPath id="clip0_8586_75654">
            <rect width="100" height="100" fill="white" style="fill:white;fill:white;fill-opacity:1;"/>
        </clipPath>
    </defs>
</svg>